<?xml version="1.0" encoding="UTF-8"?>
<svg version="1.1" xmlns="http://www.w3.org/2000/svg" width="2106" height="560">
<path d="M0 0 C54.78 0 109.56 0 166 0 C169.031875 11.859375 172.06375 23.71875 175.1875 35.9375 C182.59570726 64.88813189 190.04926138 93.82646106 197.5625 122.75 C204.85976838 150.84212333 212.1096561 178.94601025 219.3125 207.0625 C219.64637159 208.36576485 219.64637159 208.36576485 219.98698807 209.69535828 C222.6599017 220.12975035 225.33096712 230.56461459 228 241 C230.99119332 232.58485534 233.14010576 223.97962106 235.33203125 215.33203125 C235.76025481 213.65291467 236.18878062 211.97387516 236.61758423 210.29490662 C237.53722949 206.69151094 238.4548305 203.0876033 239.37081909 199.48327637 C240.83184998 193.73441835 242.29752623 187.98675089 243.76391602 182.23925781 C245.81519918 174.19782525 247.86469569 166.15593946 249.91308594 158.11376953 C254.74224335 139.15603436 259.58918338 120.20284283 264.4375 101.25 C264.66600647 100.35666584 264.89451294 99.46333168 265.12994385 98.54292679 C271.01266933 75.54521351 276.89896097 52.54839926 282.82913208 29.56286621 C283.47836528 27.04555883 284.12687837 24.5280656 284.77462769 22.01037598 C285.64565375 18.62611662 286.51959217 15.24262449 287.39453125 11.859375 C287.64753998 10.8744104 287.90054871 9.8894458 288.16122437 8.87463379 C288.50644638 7.54401917 288.50644638 7.54401917 288.85864258 6.18652344 C289.05653885 5.41999451 289.25443512 4.65346558 289.45832825 3.8637085 C290 2 290 2 291 0 C345.78 0 400.56 0 457 0 C457 153.12 457 306.24 457 464 C422.68 464 388.36 464 353 464 C352.505 315.995 352.505 315.995 352 165 C338.635 217.47 338.635 217.47 325 271 C315.4375 308.25 315.4375 308.25 310.98828125 325.54296875 C307.3428069 339.72459402 303.72845393 353.91405265 300.12194252 368.10563278 C299.23191854 371.60757681 298.34150626 375.10942189 297.45097351 378.61123657 C296.85671243 380.94817924 296.2624589 383.28512382 295.66821289 385.62207031 C295.37388335 386.77954206 295.07955381 387.93701382 294.7763052 389.12956047 C293.03245937 395.98877231 291.29156618 402.84872534 289.55282688 409.70923328 C288.46439419 414.00114944 287.37333351 418.29239465 286.28165627 422.58348656 C285.77516215 424.57676636 285.26977654 426.57032823 284.76563072 428.56420326 C284.06433896 431.33726821 283.35899809 434.10927639 282.65283203 436.88110352 C282.45749091 437.6576894 282.26214979 438.43427528 282.06088924 439.23439407 C279.92920227 447.56687174 277.43264051 455.72902227 275 464 C243.98 464 212.96 464 181 464 C175.22573414 443.21264291 175.22573414 443.21264291 172.86911011 433.80445862 C172.69629391 433.11576754 172.52347771 432.42707645 172.34542465 431.71751595 C172.07775976 430.65078305 172.07775976 430.65078305 171.8046875 429.5625 C171.41649424 428.02276549 171.02806949 426.48308934 170.63943481 424.94346619 C169.81373331 421.67114556 168.98916429 418.39854278 168.16552734 415.1257019 C165.92633945 406.22939931 163.67800853 397.33540423 161.4296875 388.44140625 C161.20009087 387.53295015 160.97049423 386.62449406 160.73394012 385.68850899 C156.20187849 367.75962873 151.61105841 349.84619881 147 331.9375 C141.22090983 309.48980578 135.47400055 287.03411529 129.7578125 264.5703125 C129.44336937 263.33462336 129.12892624 262.09893421 128.80495453 260.82579994 C125.64725627 248.41574434 122.49138713 236.00522452 119.33767891 223.59415436 C118.15439487 218.93797344 116.97053011 214.28194028 115.78658676 209.62592697 C114.97390406 206.42888365 114.16211743 203.23161375 113.35037231 200.03433228 C112.84577006 198.04965043 112.34112355 196.06497983 111.83642578 194.08032227 C111.62238602 193.23613204 111.40834625 192.39194181 111.18782043 191.52217007 C108.84875654 182.33248121 106.41358092 173.17160749 104 164 C103.67 263 103.34 362 103 464 C69.01 464 35.02 464 0 464 C0 310.88 0 157.76 0 0 Z M103 102 C103 116.85 103 131.7 103 147 C104.65 147.66 106.3 148.32 108 149 C111.6522882 151.51382079 112.16632263 155.43605465 113.15039062 159.51977539 C113.44243362 160.67609231 113.44243362 160.67609231 113.74037647 161.85576916 C114.38894701 164.43401953 115.02247504 167.01573255 115.65625 169.59765625 C116.11395202 171.42860835 116.57264782 173.25931228 117.03227234 175.08978271 C118.01616693 179.01605504 118.99364881 182.94384707 119.96615601 186.87295532 C121.51523487 193.13049929 123.07894806 199.38432487 124.64575195 205.63745117 C125.17605708 207.75440567 125.70634574 209.8713643 126.23661804 211.98832703 C126.49959875 213.0381394 126.76257946 214.08795177 127.03352928 215.16957664 C127.83527598 218.37233683 128.63564528 221.57543833 129.43562317 224.77864075 C133.76233033 242.09791349 138.17650233 259.39345798 142.63703918 276.67867279 C144.34326906 283.29276709 146.04496337 289.9080301 147.74609375 296.5234375 C147.94301441 297.28911671 148.13993507 298.05479591 148.34282303 298.84367752 C155.78716465 327.79806534 163.13450024 356.77739744 170.49890804 385.75219345 C171.67357594 390.37347843 172.84869087 394.99464969 174.02384758 399.61581039 C174.82406443 402.76345021 175.62355273 405.91127439 176.42298889 409.05911255 C180.23531975 424.05207957 184.11747428 439.02454363 188 454 C214.4 454 240.8 454 268 454 C277.50624231 417.26714138 286.94184128 380.51760808 296.3125 343.75 C304.60854985 311.2005836 312.91031568 278.65272991 321.28442383 246.12329102 C321.84729782 243.9365965 322.41016507 241.74990026 322.97301674 239.5632 C323.34378079 238.12282648 323.71458811 236.6824641 324.08543968 235.24211311 C326.61689617 225.40839677 329.12987879 215.5701233 331.62939453 205.72824097 C333.01415306 200.27625761 334.40421547 194.82563091 335.7956543 189.37534904 C336.91464714 184.99040349 338.02683847 180.60380985 339.13378143 176.21580791 C339.96818404 172.91696637 340.81302987 169.62081713 341.65625 166.32421875 C341.95221069 165.14163986 342.24817139 163.95906097 342.55310059 162.74064636 C342.97250916 161.11271904 342.97250916 161.11271904 343.40039062 159.4519043 C343.7574408 158.04463326 343.7574408 158.04463326 344.1217041 156.6089325 C345.10453303 153.68949005 346.14853984 151.46957586 348 149 C349.65 148.34 351.3 147.68 353 147 C353 132.48 353 117.96 353 103 C351.54321018 105.91357965 350.63274398 107.96331926 349.86231995 111.00723267 C349.55868105 112.19264082 349.55868105 112.19264082 349.24890804 113.40199661 C349.03343099 114.26272152 348.81795393 115.12344643 348.59594727 116.01025391 C348.36240067 116.92751629 348.12885408 117.84477867 347.88823032 118.78983688 C347.10995278 121.8509962 346.33822072 124.91376782 345.56640625 127.9765625 C345.01677349 130.14330682 344.46670555 132.30994078 343.91622925 134.47647095 C342.74111543 139.10479706 341.56878332 143.73381526 340.39865112 148.36340332 C338.54978338 155.67801812 336.69466391 162.99103742 334.83813477 170.30371094 C334.21482562 172.75903247 333.59151934 175.21435474 332.96821594 177.66967773 C332.66021875 178.88289703 332.35222157 180.09611633 332.03489113 181.34609985 C331.10001643 185.02952907 330.16573692 188.7131088 329.23161316 192.39672852 C324.51697553 210.98561085 319.76362108 229.56423022 314.98171997 248.13590622 C313.31656509 254.60441851 311.65414184 261.07363352 309.9921875 267.54296875 C309.8036747 268.27677073 309.6151619 269.0105727 309.42093658 269.7666111 C303.86925023 291.38128224 298.34880016 313.00395057 292.83206177 334.62756348 C291.66356206 339.20757909 290.49433463 343.78740788 289.32443237 348.36706543 C287.94373268 353.77216184 286.56465524 359.17766971 285.18677902 364.58348656 C284.67835649 366.57719579 284.16941706 368.5707733 283.65990067 370.56420326 C282.95153242 373.33612235 282.24519712 376.10855255 281.53930664 378.88110352 C281.24090205 380.04598234 281.24090205 380.04598234 280.93646908 381.23439407 C278.84516647 389.46612656 276.94644504 397.72760858 275 406 C243.98 406 212.96 406 181 406 C179.68 400.06 178.36 394.12 177 388 C175.5105929 381.89697521 175.5105929 381.89697521 173.98240662 375.80445862 C173.80709349 375.11576754 173.63178036 374.42707645 173.45115471 373.71751595 C173.27004709 373.00636068 173.08893948 372.29520542 172.90234375 371.5625 C172.51229448 370.02287334 172.12245413 368.48319374 171.73280334 366.94346619 C170.68908577 362.82230528 169.64192413 358.70202712 168.59393311 354.58195114 C167.70043383 351.06754661 166.80893535 347.55263555 165.91731834 344.03775311 C159.61776679 319.20716093 153.2641992 294.39057587 146.87902832 269.58187866 C141.48726173 248.63244443 136.12795994 227.67490696 130.79296875 206.7109375 C130.4797681 205.4802183 130.16656746 204.24949909 129.84387589 202.98148537 C126.70063348 190.62902987 123.55924812 178.27610288 120.4198103 165.9226799 C119.24072398 161.2835064 118.06112356 156.6444637 116.881464 152.00543594 C116.07497576 148.83293782 115.26929895 145.66023444 114.46366882 142.48751831 C111.03000535 128.97738144 107.53500447 115.48397051 104 102 C103.67 102 103.34 102 103 102 Z M9 406 C9 421.84 9 437.68 9 454 C36.72 454 64.44 454 93 454 C93 438.16 93 422.32 93 406 C65.28 406 37.56 406 9 406 Z M363 406 C363 421.84 363 437.68 363 454 C390.72 454 418.44 454 447 454 C447 438.16 447 422.32 447 406 C419.28 406 391.56 406 363 406 Z " fill="#F4F4F5" transform="translate(767,51)"/>
<path d="M0 0 C0.97050293 0.16097168 1.94100586 0.32194336 2.94091797 0.48779297 C24.43047067 4.13775615 46.16584093 10.31773037 65.25878906 21.02490234 C67.03194184 22.01788779 68.82209108 22.97313315 70.6171875 23.92578125 C83.04930183 30.6393595 93.76303173 39.30265486 104 49 C104.94488281 49.88042969 105.88976563 50.76085937 106.86328125 51.66796875 C145.62237034 88.51412355 159.66228449 143.33764144 161.05996323 195.22612 C161.15740888 200.60360289 161.16553361 205.98115034 161.16796875 211.359375 C161.17119955 213.08164495 161.17456482 214.80391464 161.17805481 216.52618408 C161.18399029 220.11625806 161.18590076 223.70630819 161.18530273 227.29638672 C161.1852219 230.91069591 161.19210547 234.52487719 161.20581055 238.13916016 C161.44903484 303.33881684 156.00752273 369.9533534 108 419 C106.67548828 420.39992188 106.67548828 420.39992188 105.32421875 421.828125 C68.58512014 459.89642399 15.04356423 474.1845835 -36.42578125 475.28515625 C-96.73305768 476.26974345 -158.1127752 466.1701632 -203.0546875 422.91015625 C-241.30476493 385.34002525 -259.77873303 332.29058506 -260.2746582 279.23974609 C-260.30176461 274.83423268 -260.30382649 270.42902107 -260.30078125 266.0234375 C-260.30468168 263.64043098 -260.30901905 261.25742515 -260.31376648 258.87442017 C-260.32117974 253.90405006 -260.32097384 248.93375104 -260.31567383 243.96337891 C-260.30989465 237.66386829 -260.3267972 231.36465317 -260.3500185 225.06519127 C-260.36491261 220.14883792 -260.36560634 215.23255311 -260.36250877 210.31618118 C-260.36301444 207.99708091 -260.36810624 205.677976 -260.37832069 203.35889816 C-260.57823169 151.62541657 -247.83117299 99.56725331 -213 60 C-212.13761719 59.00484375 -211.27523438 58.0096875 -210.38671875 56.984375 C-204.45441385 50.24889147 -198.14231332 44.46880057 -191 39 C-190.06542969 38.26136719 -189.13085938 37.52273437 -188.16796875 36.76171875 C-162.39308322 16.78359462 -131.95249956 5.56915716 -100 0 C-99.08847168 -0.16371094 -98.17694336 -0.32742187 -97.23779297 -0.49609375 C-66.10440745 -5.80285853 -31.07861372 -5.46466981 0 0 Z M-111.59375 118.94921875 C-128.58885163 140.61797332 -134.44422358 169.90236142 -134 197 C-131.93583098 193.90374647 -130.46291613 190.8016665 -128.875 187.4375 C-125.66648351 180.89505543 -121.92315521 175.40939276 -117 170 C-116.17628906 169.08347656 -115.35257813 168.16695313 -114.50390625 167.22265625 C-99.51429951 151.3628256 -78.65223452 142.4202575 -56.84765625 141.796875 C-29.31150758 141.42370492 -5.12606019 147.67271534 15.3046875 167.203125 C22.7781382 175.01275168 29.28896985 184.79952447 33 195 C33.33 195 33.66 195 34 195 C35.39989389 167.05397018 27.97862307 138.12048716 9.9140625 116.50390625 C-3.82446957 101.76945829 -23.38846964 93.49275542 -43.33203125 92.6796875 C-70.14629188 92.02563517 -93.40942944 98.27276992 -111.59375 118.94921875 Z M-111.59375 176.94921875 C-125.34094469 194.47689198 -134.9754082 220.67642827 -132.45166016 243.21484375 C-128.93659729 267.2425257 -119.65060049 292.09049273 -99.75 307.1875 C-79.1964391 321.40818932 -54.1019411 325.38319176 -29.62768555 320.97412109 C-16.44805444 318.12105637 -4.02590981 312.06709099 6 303 C6.91458984 302.20529297 6.91458984 302.20529297 7.84765625 301.39453125 C24.62542971 285.87048152 30.85091614 260.06016627 33 238 C33.87935926 215.16178385 24.35345083 191.78250016 9.9140625 174.50390625 C-3.82446957 159.76945829 -23.38846964 151.49275542 -43.33203125 150.6796875 C-70.14629188 150.02563517 -93.40942944 156.27276992 -111.59375 176.94921875 Z M-250 287 C-248.52952576 336.99612431 -228.8819736 384.44432849 -192.8984375 419.40625 C-152.3465158 455.69530122 -99.7412761 465.50892715 -46.8125 465.3125 C-45.78640625 465.31067719 -44.7603125 465.30885437 -43.703125 465.30697632 C-27.95692235 465.26000333 -12.5398825 464.76603375 3 462 C4.44922852 461.75056641 4.44922852 461.75056641 5.92773438 461.49609375 C38.66614747 455.66921733 69.49023873 441.83810926 93.8515625 418.97265625 C96 417 96 417 98.57421875 414.9609375 C131.71913897 388.16745932 145.3374652 338.59836816 149.73828125 298.42578125 C149.97966402 295.26618885 150.05351404 292.16705836 150 289 C148.63009886 291.65325485 147.45451897 294.30259586 146.40625 297.09765625 C137.19241929 321.20423623 125.1186352 342.47932408 107 361 C106.19046875 361.85980469 105.3809375 362.71960938 104.546875 363.60546875 C68.29576366 401.31831845 14.30803723 415.20031132 -36.42578125 416.28515625 C-96.79575365 417.27076704 -158.13971179 407.13753908 -203.12109375 363.84375 C-224.85167466 342.50439068 -239.73710626 315.86189924 -249 287 C-249.33 287 -249.66 287 -250 287 Z " fill="#F4F4F5" transform="translate(1502,47)"/>
<path d="M0 0 C1.10705292 -0.00785522 2.21410583 -0.01571045 3.35470581 -0.02380371 C49.97861265 -0.28098192 99.70067978 7.27334998 134.4375 41 C154.63099505 61.32290523 168.3125 93.62938963 168.3125 122.375 C163.0325 122.375 157.7525 122.375 152.3125 122.375 C152.97636719 123.93605469 153.64023437 125.49710937 154.32421875 127.10546875 C158.65104712 137.46973206 162.79321954 147.7350158 165.375 158.6875 C165.56602295 159.49018311 165.7570459 160.29286621 165.95385742 161.11987305 C167.34912035 167.48949453 167.88396289 173.87609928 168.3125 180.375 C167.34948975 180.43034912 166.38647949 180.48569824 165.39428711 180.54272461 C161.79531446 180.75036256 158.19657922 180.96189589 154.59790039 181.17456055 C153.04522737 181.26578029 151.49249327 181.35596678 149.93969727 181.44506836 C147.69790768 181.5738903 145.45636964 181.70652094 143.21484375 181.83984375 C142.52913803 181.87843002 141.84343231 181.9170163 141.13694763 181.95677185 C136.81098421 182.21866648 132.59026744 182.71108271 128.3125 183.375 C129.55 184.179375 129.55 184.179375 130.8125 185 C157.72304226 203.03637664 173.92990454 227.76933287 180.3125 259.375 C181.48694198 266.54604762 181.50267787 273.56172308 181.5 280.8125 C181.50138977 281.48351746 181.50277954 282.15453491 181.50421143 282.84588623 C181.51338883 291.61974333 181.23053167 300.13031846 179.5546875 308.7578125 C179.3285298 312.13558721 179.62441754 314.59820045 180.234375 317.8984375 C183.61260706 336.34834098 182.36517912 356.3522555 177.3125 374.375 C177.13058105 375.0448291 176.94866211 375.7146582 176.76123047 376.40478516 C167.27677636 410.40134049 143.00682823 438.29658756 112.6875 455.5625 C78.5310846 474.25690718 39.38965007 478.61259917 1.0625 478.5625 C0.13497925 478.56156342 -0.7925415 478.56062683 -1.74816895 478.55966187 C-48.88557038 478.45679267 -106.08261069 474.38367233 -141.69140625 439.41015625 C-142.69310802 438.40141152 -143.691918 437.38978512 -144.6875 436.375 C-145.58339844 435.46621094 -146.47929687 434.55742187 -147.40234375 433.62109375 C-153.60180692 427.05864198 -158.87324053 420.00391204 -163.6875 412.375 C-164.06261719 411.78122559 -164.43773437 411.18745117 -164.82421875 410.57568359 C-178.81121518 388.02582885 -185.35511762 362.62300469 -187.6875 336.375 C-183.0675 336.045 -178.4475 335.715 -173.6875 335.375 C-174.574375 333.291875 -175.46125 331.20875 -176.375 329.0625 C-182.71563186 313.46239508 -187.6875 295.3168569 -187.6875 278.375 C-170.52706136 276.78199428 -153.36233856 275.62008258 -136.15820312 274.62231445 C-132.99588345 274.4377828 -129.83388073 274.24841722 -126.671875 274.05859375 C-125.7095697 274.00440781 -124.7472644 273.95022186 -123.75579834 273.89439392 C-122.86926575 273.84086258 -121.98273315 273.78733124 -121.06933594 273.73217773 C-120.29265564 273.68713608 -119.51597534 273.64209442 -118.71575928 273.59568787 C-116.48613481 273.42551996 -116.48613481 273.42551996 -113.6875 272.375 C-114.71488281 271.76914062 -115.74226563 271.16328125 -116.80078125 270.5390625 C-125.66763865 265.21379977 -133.33387375 259.70399099 -140.6875 252.375 C-141.9559375 251.11623047 -141.9559375 251.11623047 -143.25 249.83203125 C-154.61687857 238.37407192 -162.65719934 225.77225863 -167.6875 210.375 C-167.89922852 209.73062988 -168.11095703 209.08625977 -168.32910156 208.42236328 C-173.56576609 191.58785617 -173.74409178 171.79760859 -170.13623047 154.62866211 C-169.15534287 149.7023436 -169.66155233 145.38021729 -170.6796875 140.53515625 C-176.03917834 111.43734713 -169.5320567 82.97575908 -153.6875 58.375 C-151.16155165 54.90894306 -148.47801648 51.62962343 -145.6875 48.375 C-144.97013672 47.45847656 -144.97013672 47.45847656 -144.23828125 46.5234375 C-123.58269231 20.60037746 -87.20115629 8.30915076 -55.6875 3.375 C-54.74503418 3.22401855 -53.80256836 3.07303711 -52.83154297 2.91748047 C-35.27786171 0.26165176 -17.71791594 0.06145211 0 0 Z M-42.6875 84.375 C-43.76 85.1175 -44.8325 85.86 -45.9375 86.625 C-49.44971643 90.13721643 -51.50562548 93.95040188 -53.6875 98.375 C-54.0175 99.035 -54.3475 99.695 -54.6875 100.375 C-55.34864311 108.12446438 -55.55687806 114.13220762 -50.6875 120.375 C-46.78127849 124.98112561 -43.74600553 127.98847635 -37.6875 129.375 C-34.76673711 129.00905815 -34.76673711 129.00905815 -31.8125 128.0625 C-11.44795413 122.89055184 11.32902377 125.01274033 29.671875 135.60546875 C35.22303222 139.32540103 40.67577311 143.5492196 44.05395508 149.3815918 C46.7695745 152.98079293 48.32881925 153.50815716 52.640625 154.61328125 C53.90455078 154.95407715 55.16847656 155.29487305 56.47070312 155.64599609 C57.13851807 155.81572937 57.80633301 155.98546265 58.49438477 156.16033936 C62.00485346 157.05515455 65.49395159 158.02649822 68.984375 158.99609375 C69.68780029 159.1901178 70.39122559 159.38414185 71.1159668 159.58404541 C77.81280672 161.458317 84.31918904 163.76185609 90.8125 166.25 C91.77704102 166.61907471 92.74158203 166.98814941 93.73535156 167.3684082 C97.47387415 168.81994069 101.05369455 170.23635422 104.59375 172.1328125 C115.37339288 175.73357556 128.90373055 173.09120092 140.1875 172.375 C141.76169486 172.27825633 143.33591358 172.18190004 144.91015625 172.0859375 C148.71122624 171.85340554 152.5119386 171.61569582 156.3125 171.375 C157.26134943 168.35294199 157.32134115 166.41223189 156.52734375 163.35546875 C156.32947266 162.5876709 156.13160156 161.81987305 155.92773438 161.02880859 C155.70408203 160.21492676 155.48042969 159.40104492 155.25 158.5625 C155.02248047 157.72025879 154.79496094 156.87801758 154.56054688 156.01025391 C149.88892026 138.38669376 149.88892026 138.38669376 140.3125 123.375 C138.04429664 123.39276106 135.77670516 123.48731576 133.51171875 123.609375 C132.42599075 123.66591751 132.42599075 123.66591751 131.31832886 123.72360229 C128.87857744 123.85219222 126.43932284 123.98853726 124 124.125 C122.28965059 124.2169775 120.57928228 124.30860398 118.86889648 124.39990234 C95.67932916 125.64894557 72.49575999 127.01471922 49.3125 128.375 C48.94354614 126.78933228 48.94354614 126.78933228 48.56713867 125.17163086 C45.99982224 114.24107503 45.99982224 114.24107503 41.625 103.9375 C41.10583008 102.94459961 41.10583008 102.94459961 40.57617188 101.93164062 C33.97753285 89.8598037 23.24341064 82.58067601 10.15136719 78.74121094 C-6.94691237 74.54204052 -27.76873256 73.8847509 -42.6875 84.375 Z M-20.6875 136.375 C-13.89041408 137.9695417 -7.09089582 139.55336336 -0.28955078 141.12963867 C2.02548175 141.66751556 4.33993906 142.20787431 6.65380859 142.75073242 C9.97346462 143.52911001 13.29506465 144.29863507 16.6171875 145.06640625 C17.65680634 145.31217911 18.69642517 145.55795197 19.76754761 145.81117249 C20.72839264 146.03147629 21.68923767 146.25178009 22.67919922 146.47875977 C23.52747284 146.6763942 24.37574646 146.87402863 25.24972534 147.07765198 C27.3706867 147.5835111 27.3706867 147.5835111 29.3125 146.375 C19.20075575 139.79468921 -10.09405563 125.78155563 -20.6875 136.375 Z M-161.6875 167.375 C-166.57573336 185.7058751 -159.91028903 209.16522566 -150.7578125 225.15234375 C-137.24142747 246.19199969 -115.71728644 264.36507119 -91.6875 272.375 C-89.93617497 272.40220711 -88.18346809 272.36534719 -86.43359375 272.2890625 C-85.41458984 272.24523437 -84.39558594 272.20140625 -83.34570312 272.15625 C-82.28287109 272.1046875 -81.22003906 272.053125 -80.125 272 C-79.05830078 271.95617187 -77.99160156 271.91234375 -76.89257812 271.8671875 C-71.62094645 271.84518505 -71.62094645 271.84518505 -66.6875 270.375 C-66.1925 276.315 -66.1925 276.315 -65.6875 282.375 C-52.9167771 287.03661364 -40.00125248 290.69266721 -26.8125 293.9375 C-26.03104614 294.1300235 -25.24959229 294.322547 -24.44445801 294.52090454 C-20.59195362 295.46862221 -16.7382794 296.41146854 -12.88378906 297.35107422 C28.70362779 307.49110715 28.70362779 307.49110715 47.3125 318.375 C48.63958275 319.05402401 49.97042171 319.72611781 51.3125 320.375 C57.32861137 311.48326307 60.31908328 303.62378407 58.84765625 292.81640625 C56.48498974 282.03781815 49.31067136 272.58600193 40.3125 266.375 C23.31906489 256.83220415 3.8770354 251.99153902 -14.96246338 247.60314941 C-19.87703345 246.45531129 -24.78253349 245.27014355 -29.6875 244.08203125 C-30.64584747 243.84990936 -31.60419495 243.61778748 -32.59158325 243.37863159 C-79.53319605 231.92479077 -131.20124166 214.93044739 -157.85717773 171.79467773 C-158.77846675 170.30749866 -159.72995753 168.83909954 -160.6875 167.375 C-161.0175 167.375 -161.3475 167.375 -161.6875 167.375 Z M-61.6875 294.375 C-57.13704144 309.79599846 -48.37970084 322.04951316 -34.8125 330.875 C-17.24323382 340.40848706 5.44975735 342.59166002 24.75 337.6875 C35.36933833 334.4863449 35.36933833 334.4863449 43.3125 327.375 C27.08759874 313.64849839 1.77502676 309.4738158 -18.375 304.75 C-22.19252955 303.84582273 -26.00866879 302.93592946 -29.82421875 302.0234375 C-30.74016815 301.80548523 -31.65611755 301.58753296 -32.599823 301.36297607 C-39.50274342 299.70415444 -46.34354113 297.86478291 -53.15959167 295.87924194 C-56.10604888 295.03083192 -58.60316898 294.375 -61.6875 294.375 Z M170.3125 333.375 C169.85101562 334.36757813 169.38953125 335.36015625 168.9140625 336.3828125 C154.47907444 366.73503654 130.77883297 388.51201251 100.3125 402.375 C99.14589844 402.90867187 97.97929688 403.44234375 96.77734375 403.9921875 C66.72137509 416.84003236 33.39185371 419.60475918 1.0625 419.5625 C0.13497925 419.56156342 -0.7925415 419.56062683 -1.74816895 419.55966187 C-48.95191778 419.45664788 -106.10782459 415.35614092 -141.7578125 380.34375 C-142.73741354 379.35717446 -143.7141534 378.36774664 -144.6875 377.375 C-145.92113281 376.12203125 -145.92113281 376.12203125 -147.1796875 374.84375 C-155.43713656 366.04342366 -162.0842247 356.03929815 -167.6875 345.375 C-170.6575 345.375 -173.6275 345.375 -176.6875 345.375 C-173.98078088 376.17559685 -160.45787733 404.7004165 -139.6875 427.375 C-138.89859375 428.25800781 -138.1096875 429.14101563 -137.296875 430.05078125 C-116.42690731 452.26831308 -84.95072022 461.172453 -55.6875 465.375 C-54.67075195 465.52598145 -53.65400391 465.67696289 -52.60644531 465.83251953 C-18.7131172 470.63813519 18.54924413 471.31293802 52.3125 465.375 C53.28848145 465.20871094 54.26446289 465.04242188 55.27001953 464.87109375 C90.91352578 458.57179957 126.37229563 442.43821034 148.12597656 412.37719727 C149.93497909 409.75838714 151.63183372 407.07751138 153.3125 404.375 C154.24835938 402.91320312 154.24835938 402.91320312 155.203125 401.421875 C164.60221935 386.13813028 169.84128989 369.22798844 171.625 351.4375 C171.71362305 350.5614209 171.80224609 349.6853418 171.89355469 348.78271484 C172.35084235 343.45480546 172.16305832 338.65580454 171.3125 333.375 C170.9825 333.375 170.6525 333.375 170.3125 333.375 Z " fill="#F4F4F5" transform="translate(569.6875,43.625)"/>
<path d="M0 0 C0.93763184 0.17160645 1.87526367 0.34321289 2.84130859 0.52001953 C44.79988547 8.54182844 82.79657376 28.4587614 107.5234375 64.28125 C108.35326403 65.51795507 109.17890733 66.75747905 110 68 C110.57476074 68.86431641 110.57476074 68.86431641 111.16113281 69.74609375 C136 107.68181818 136 107.68181818 136 124 C132.56382292 124.83885377 129.12585663 125.67012919 125.6875 126.5 C124.71103516 126.73847656 123.73457031 126.97695312 122.72851562 127.22265625 C121.79072266 127.44824219 120.85292969 127.67382812 119.88671875 127.90625 C119.02264404 128.11572266 118.15856934 128.32519531 117.26831055 128.54101562 C115 129 115 129 112 129 C112.81791016 130.40185547 112.81791016 130.40185547 113.65234375 131.83203125 C136 170.57397215 136 170.57397215 136 182 C112.54731268 187.51518194 89.04631538 192.81424856 65.5255127 198.03024292 C62.42334282 198.71827216 59.32173711 199.40876469 56.22058105 200.10134888 C52.51106283 200.92956916 48.80039644 201.7524388 45.08880234 202.57130432 C43.70350585 202.87778524 42.31860083 203.18604158 40.93411636 203.49617004 C39.02081814 203.92435393 37.10589957 204.34527792 35.19091797 204.76586914 C34.11164032 205.00519669 33.03236267 205.24452423 31.92037964 205.49110413 C29.2063084 205.96404937 26.74681899 206.10026697 24 206 C23.72027344 205.29617187 23.44054688 204.59234375 23.15234375 203.8671875 C17.98587285 191.1420534 12.98453162 179.67142784 3 170 C2.36320312 169.36578125 1.72640625 168.7315625 1.0703125 168.078125 C-12.65632296 155.20584444 -30.50549881 149.8879444 -49.015625 149.96484375 C-69.504148 150.78840203 -87.51622378 157.05397561 -102 172 C-102.70640625 172.70898438 -103.4128125 173.41796875 -104.140625 174.1484375 C-119.80353827 190.70808245 -127.18566083 216.05622534 -127.0871582 238.55834961 C-126.94764414 242.46669731 -126.38778683 246.27053164 -125.75 250.125 C-125.61577637 250.94685791 -125.48155273 251.76871582 -125.34326172 252.61547852 C-122.57979105 268.84890379 -118.19415633 283.83734217 -108 297 C-107.56300781 297.61359375 -107.12601563 298.2271875 -106.67578125 298.859375 C-97.02882134 311.49022941 -80.55823834 318.1468134 -65.33984375 320.49609375 C-44.86719645 323.15299259 -22.11653348 320.57909301 -5.265625 307.859375 C11.69216154 293.94229501 20.36942522 273.41537778 25.9921875 252.671875 C26.88966608 249.4019918 27.89524961 246.2047714 29 243 C39.05112118 245.35481177 48.88466488 248.31268532 58.75 251.33203125 C60.45605309 251.85172816 62.16219093 252.37114693 63.8684082 252.89030457 C68.33960283 254.25151747 72.80972778 255.61620906 77.27960205 256.98175049 C82.65527937 258.62336374 88.03215056 260.26106115 93.40890503 261.89914227 C97.60529496 263.17766494 101.80150371 264.45676916 105.99707031 265.73799133 C117.32074766 269.19435114 128.65732901 272.60651049 140 276 C135.70233466 294.21873498 129.83138766 310.98698543 122 328 C127.94 329.98 133.88 331.96 140 334 C130.28138926 375.11719927 111.64965649 415.07299695 77 441 C76.06285156 441.71414063 75.12570312 442.42828125 74.16015625 443.1640625 C39.10555504 468.69933185 -2.47429975 475.24287883 -44.875 475.1875 C-46.16207855 475.18659363 -46.16207855 475.18659363 -47.47515869 475.18566895 C-61.39720141 475.15914399 -75.1740146 474.7654277 -89 473 C-90.01126953 472.87109375 -91.02253906 472.7421875 -92.06445312 472.609375 C-132.86701663 467.17908928 -167.13394843 453.40593349 -197 425 C-197.63292969 424.41992188 -198.26585937 423.83984375 -198.91796875 423.2421875 C-205.00647805 417.4863046 -209.95786646 410.66231562 -215 404 C-215.43248047 403.43361816 -215.86496094 402.86723633 -216.31054688 402.28369141 C-247.612777 361.03371865 -256.14783157 310.31593832 -256.16796875 259.7265625 C-256.17119476 257.79006935 -256.17455975 255.85357642 -256.17805481 253.91708374 C-256.1840043 249.87456703 -256.1858992 245.83207155 -256.18530273 241.78955078 C-256.18522172 237.6977087 -256.19213019 233.60597916 -256.20581055 229.51416016 C-256.4132638 166.48269209 -250.93189112 102.55846933 -206 54 C-205.52594727 53.48743652 -205.05189453 52.97487305 -204.56347656 52.44677734 C-177.00487914 23.03805364 -139.17768907 6.93093669 -100 0 C-99.08412109 -0.16516113 -98.16824219 -0.33032227 -97.22460938 -0.50048828 C-66.22479806 -5.78181625 -30.92739337 -5.6739893 0 0 Z M-102 113 C-102.78246094 113.78375 -103.56492187 114.5675 -104.37109375 115.375 C-122.90784456 134.88078838 -129.08778329 163.85000193 -129.125 190.125 C-129.08375 191.40375 -129.0425 192.6825 -129 194 C-126.68548866 191.68548866 -125.80656793 189.59716456 -124.4375 186.625 C-115.05846865 167.63984211 -99.76620288 153.51635873 -80 146 C-56.83939848 138.52315364 -32.35282388 138.37965585 -9.8984375 148.46875 C10.0263833 158.99507042 21.65698644 174.56088471 30 195 C35.9184834 194.41829961 41.61333794 193.56278944 47.40966797 192.25 C48.19620255 192.075896 48.98273712 191.90179199 49.79310608 191.72241211 C52.36051375 191.15286978 54.92634902 190.57656667 57.4921875 190 C59.28809476 189.59988891 61.08408618 189.20015539 62.88015747 188.80078125 C66.62779151 187.96644577 70.37471372 187.12901058 74.12109375 186.2890625 C78.92530549 185.211994 83.73074033 184.14051029 88.5366497 183.07104492 C92.23777476 182.24718868 95.9384967 181.42153475 99.63907242 180.59521484 C101.41165733 180.19940794 103.18430872 179.8038986 104.95702744 179.40869141 C107.42729353 178.85745581 109.89706836 178.30407368 112.36669922 177.75 C113.09918381 177.58685303 113.8316684 177.42370605 114.58634949 177.25561523 C117.44615753 176.61201018 120.21663284 175.92778905 123 175 C120.80365384 167.89848076 117.97856895 161.31546861 114.75 154.625 C114.26490967 153.6136499 113.77981934 152.6022998 113.2800293 151.56030273 C109.94185259 144.697295 106.37067086 138.26288692 102 132 C94.29820288 132.49503183 86.9406593 133.9727051 79.4281826 135.69847298 C77.37314214 136.17045152 75.3165107 136.63485845 73.25935364 137.09751892 C68.90055816 138.07923309 64.54393207 139.07035913 60.1875 140.0625 C55.11705208 141.21663397 50.04575965 142.36681945 44.97246742 143.50839043 C42.95238561 143.96487889 40.93385896 144.42783402 38.91532898 144.89112854 C37.68667618 145.16819138 36.45802338 145.44525421 35.19213867 145.73071289 C34.11421555 145.97640518 33.03629242 146.22209747 31.92570496 146.47523499 C29.20556083 146.96312987 26.75486546 147.10342906 24 147 C23.64808594 145.98421875 23.29617188 144.9684375 22.93359375 143.921875 C15.70346721 123.52570047 4.73589636 107.8446197 -15 98 C-43.87381435 84.9364413 -79.60958123 90.27316425 -102 113 Z M-245 288 C-246.27123276 336.40854335 -223.22301291 382.59839986 -190.94921875 417.3046875 C-161.81041068 447.92604362 -122.88978067 459.22373618 -82 464 C-80.66195313 464.15903809 -80.66195313 464.15903809 -79.296875 464.32128906 C-68.53513143 465.40758662 -57.6796959 465.2439012 -46.875 465.25 C-45.80341644 465.25067474 -44.73183289 465.25134949 -43.6277771 465.25204468 C4.75595449 465.20363697 49.77028003 455.39687538 85.390625 420.703125 C95.34795355 410.68217135 103.25446434 399.37265705 110 387 C110.3398291 386.3807666 110.6796582 385.7615332 111.02978516 385.12353516 C115.42382332 377.01000987 119.05892752 368.67049989 122.375 360.0625 C122.70894775 359.19866699 123.04289551 358.33483398 123.38696289 357.44482422 C125.41941663 352.01623283 126.86416705 346.68490128 128 341 C127.13713379 340.66923462 127.13713379 340.66923462 126.25683594 340.33178711 C124.88476562 339.80582682 123.51269531 339.27986654 122.140625 338.75390625 C120.10940997 338.03853307 118.0964709 337.48634348 116 337 C115.3709375 337.96679688 114.741875 338.93359375 114.09375 339.9296875 C109.07228101 347.59216494 103.96852982 355.0310309 98 362 C97.23042969 362.90363281 96.46085937 363.80726563 95.66796875 364.73828125 C89.95918998 371.23819787 83.90223246 376.7928884 77 382 C76.06027344 382.71671875 75.12054687 383.4334375 74.15234375 384.171875 C39.08472163 409.6920542 -2.46829517 416.24288667 -44.875 416.1875 C-45.73305237 416.18689575 -46.59110474 416.1862915 -47.47515869 416.18566895 C-61.39720141 416.15914399 -75.1740146 415.7654277 -89 414 C-90.01126953 413.87109375 -91.02253906 413.7421875 -92.06445312 413.609375 C-140.40328256 407.17611119 -182.11362371 387.94848084 -212.2578125 348.83984375 C-226.26474596 330.16255234 -236.8468742 310.22578373 -244 288 C-244.33 288 -244.66 288 -245 288 Z " fill="#F4F4F5" transform="translate(1925,47)"/>
<path d="M0 0 C279.41471049 0 279.41471049 0 314 34 C337.97809098 58.75911006 345.14236622 91.58897567 345.1875 124.9375 C345.18867828 125.61389526 345.18985657 126.29029053 345.19107056 126.98718262 C345.18960691 134.40943597 344.95091016 141.63980561 344 149 C343.79996724 153.36071427 343.93950532 157.52564487 344.4921875 161.859375 C348.74845889 199.08837719 342.42060681 237.99931794 319 268 C307.27704754 282.52214162 293.02592868 292.53807061 276 300 C275.37577148 300.27682617 274.75154297 300.55365234 274.10839844 300.83886719 C246.39227098 312.86224221 215.27774938 314.19696096 185.49609375 314.09765625 C183.98441607 314.09617975 182.47273787 314.09516342 180.96105957 314.09460449 C175.45319841 314.08943358 169.94534831 314.07547315 164.4375 314.0625 C152.083125 314.041875 139.72875 314.02125 127 314 C127 363.5 127 413 127 464 C85.09 464 43.18 464 0 464 C0 310.88 0 157.76 0 0 Z M127 83 C127 98.84 127 114.68 127 131 C140.38545937 131.24830146 140.38545937 131.24830146 153.77124023 131.47802734 C182.5363637 132.02792987 182.5363637 132.02792987 196 136.25 C196.7014917 136.46253418 197.4029834 136.67506836 198.12573242 136.89404297 C203.75739955 138.70354511 208.39681628 141.26437862 213 145 C214.33137219 146.00260953 215.66419377 147.00330572 217 148 C217.65357278 146.77493102 218.29748233 145.54470484 218.9375 144.3125 C219.29714844 143.62800781 219.65679687 142.94351563 220.02734375 142.23828125 C224.24776635 132.52622443 222.6098548 120.67094803 219.26953125 110.98046875 C215.00226169 100.96223282 207.49434838 92.2341682 197.375 87.8671875 C181.78001813 82.26792539 165.94946879 82.74722657 149.625 82.875 C138.425625 82.936875 138.425625 82.936875 127 83 Z M127 141 C127 151.23 127 161.46 127 172 C133.56168932 172.06939507 140.12207208 172.1289696 146.68383789 172.16479492 C148.90946806 172.17975147 151.13506943 172.20012407 153.3605957 172.22631836 C173.19813847 172.45372107 194.64450068 172.4984482 210 158 C210.33 157.34 210.66 156.68 211 156 C200.40508659 144.78185639 186.39966688 141.46934408 171.33776855 140.89923096 C164.1001284 140.75581851 156.86328316 140.81715485 149.625 140.875 C147.42448325 140.88505246 145.22396205 140.89417429 143.0234375 140.90234375 C137.68208909 140.92245425 132.34137169 140.9616342 127 141 Z M334 183 C333.29037109 184.52367187 333.29037109 184.52367187 332.56640625 186.078125 C328.23516603 195.17683748 323.48027987 203.21496579 317 211 C316.25234375 211.92296875 315.5046875 212.8459375 314.734375 213.796875 C304.14764143 226.20648985 290.81131595 234.50866576 276 241 C275.37577148 241.27682617 274.75154297 241.55365234 274.10839844 241.83886719 C246.34697289 253.88189271 215.30631867 255.00592157 185.49609375 255.31640625 C183.79402756 255.33705247 182.09196561 255.35805045 180.38990784 255.37937927 C175.97278336 255.43381047 171.55561895 255.48355782 167.13842773 255.53222656 C161.80495217 255.592007 156.47154743 255.65778742 151.13813019 255.72252655 C143.0921311 255.8195381 135.04608048 255.90907291 127 256 C127 271.84 127 287.68 127 304 C141.21483603 304.05838411 141.21483603 304.05838411 155.4296875 304.09765625 C161.2461319 304.10951 167.06251205 304.12337237 172.87890625 304.15087891 C219.41241519 304.36495111 268.7410152 303.74096814 304.75 269.75 C327.34988565 245.80837716 335.71145506 215.29215469 335 183 C334.67 183 334.34 183 334 183 Z M10 406 C10 421.84 10 437.68 10 454 C45.31 454 80.62 454 117 454 C117 438.16 117 422.32 117 406 C81.69 406 46.38 406 10 406 Z " fill="#F4F4F5" transform="translate(40,51)"/>
<path d="M0 0 C4.37508949 0.48612105 6.23371943 1.5868374 9 5 C9.92051538 7.58047598 10.63556116 9.98409031 11.26391602 12.63330078 C11.45875737 13.40432475 11.65359873 14.17534872 11.85434437 14.96973705 C12.50083671 17.5418069 13.12722679 20.11834999 13.75390625 22.6953125 C14.20986473 24.52491315 14.66713906 26.3541863 15.12564087 28.18315125 C16.10561505 32.10296515 17.0769632 36.02477743 18.04159546 39.94839478 C19.5783278 46.19793639 21.13453993 52.44252066 22.69458008 58.6862793 C24.28601739 65.0583777 25.87682672 71.43062135 27.46141052 77.8044281 C31.76692494 95.11857569 36.17560858 112.40444803 40.63679504 129.67903519 C42.34264033 136.28758456 44.04251681 142.89767289 45.7421875 149.5078125 C45.93898102 150.27300013 46.13577454 151.03818775 46.33853149 151.82656288 C50.31491753 167.29229123 54.25713141 182.76669281 58.1953125 198.2421875 C58.50886248 199.47430403 58.82241245 200.70642056 59.14546394 201.97587395 C62.29254166 214.3436763 65.43770675 226.71196431 68.58103943 239.08071899 C69.75990439 243.71901156 70.93928419 248.35717315 72.11872482 252.99531937 C72.92513651 256.16750427 73.73073472 259.33989495 74.5362854 262.51229858 C75.04080439 264.49674195 75.54539078 266.48116817 76.05004883 268.46557617 C76.41135139 269.88898819 76.41135139 269.88898819 76.779953 271.34115601 C78.06353929 276.38296811 79.37134553 281.4173055 80.70932007 286.44497681 C80.98845843 287.49806439 81.2675968 288.55115198 81.5551939 289.63615131 C82.09059115 291.65117798 82.63009433 293.66511963 83.17433643 295.67777538 C83.41378829 296.57992936 83.65324015 297.48208334 83.89994812 298.41157532 C84.11285335 299.20331304 84.32575857 299.99505075 84.54511547 300.81078053 C85 303 85 303 85 307 C111.4 307 137.8 307 165 307 C165.66 303.37 166.32 299.74 167 296 C167.76985438 292.71873049 168.56276826 289.4573273 169.40405273 286.19506836 C169.63759933 285.27678379 169.87114592 284.35849922 170.11176968 283.41238785 C170.88211557 280.38727648 171.65781447 277.36356588 172.43359375 274.33984375 C172.98397004 272.18329323 173.53402159 270.02665981 174.08377075 267.86994934 C175.55755801 262.0921973 177.03605198 256.31565936 178.51549149 250.53935242 C180.06697934 244.4784211 181.61410645 238.41637662 183.16186523 232.35449219 C190.48234812 203.69230341 197.82257959 175.03507836 205.20080185 146.3876915 C209.80629949 128.50443972 214.37243972 110.61155057 218.90868568 92.71059799 C219.80230575 89.18517748 220.69668022 85.6599493 221.59135437 82.13479614 C222.03417614 80.38999686 222.03417614 80.38999686 222.48594379 78.60994911 C223.08242863 76.25981039 223.67895001 73.90968095 224.27550793 71.55956078 C226.03142156 64.64020114 227.78221388 57.71957069 229.5293045 50.7979784 C230.6204109 46.48016979 231.71621962 42.16356424 232.81322098 37.84724998 C233.32421475 35.83248698 233.83322924 33.81722078 234.34009933 31.8014164 C241.1597118 4.69005941 241.1597118 4.69005941 244.93199158 1.22572327 C247 0 247 0 250 0 C251.09728881 12.92589282 247.80387285 24.43953974 244.54296875 36.828125 C243.96611279 39.06995447 243.39076433 41.31217232 242.81681824 43.55474854 C241.27874146 49.54764114 239.72033885 55.53507264 238.15807343 61.521698 C236.52409378 67.79836851 234.90965837 74.08006103 233.29345703 80.36132812 C230.71648731 90.36774153 228.12963231 100.37153874 225.53369141 110.37304688 C222.61348569 121.62456327 219.7097078 132.88015842 216.82421875 144.140625 C216.63345827 144.88492579 216.44269779 145.62922657 216.24615669 146.39608192 C215.49825758 149.31430886 214.75040448 152.23254755 214.00281239 155.15085316 C212.73696717 160.09123253 211.4672081 165.03059466 210.19555664 169.96948242 C205.81116881 187.0020983 201.45811399 204.04248917 197.12621689 221.08853531 C196.23582091 224.59196705 195.34503638 228.09529978 194.45413208 231.59860229 C193.85955027 233.93682662 193.2649763 236.27505294 192.67041016 238.61328125 C192.37588518 239.77153475 192.08136021 240.92978825 191.77791023 242.12314034 C190.03344361 248.98487205 188.29192027 255.84734263 186.55254364 262.71036625 C185.46418469 267.00198876 184.37319761 271.29294028 183.28159332 275.58373833 C182.77512569 277.57691126 182.26976684 279.57036634 181.76564789 281.5641346 C181.06435036 284.33722242 180.35900375 287.10925349 179.65283203 289.88110352 C179.35981988 291.04598423 179.35981988 291.04598423 179.06088829 292.23439789 C176.92920157 300.56687426 174.43264014 308.72902353 172 317 C140.98 317 109.96 317 78 317 C72.22573414 296.21264291 72.22573414 296.21264291 69.86911011 286.80445862 C69.69629391 286.11576754 69.52347771 285.42707645 69.34542465 284.71751595 C69.07775976 283.65078305 69.07775976 283.65078305 68.8046875 282.5625 C68.41649424 281.02276549 68.02806949 279.48308934 67.63943481 277.94346619 C66.81373331 274.67114556 65.98916429 271.39854278 65.16552734 268.1257019 C62.92633945 259.22939931 60.67800853 250.33540423 58.4296875 241.44140625 C58.20009087 240.53295015 57.97049423 239.62449406 57.73394012 238.68850899 C53.20187842 220.75962844 48.61101168 202.84621102 44 184.9375 C38.23308538 162.53656666 32.49769684 140.12779651 26.79296875 117.7109375 C26.4797681 116.4802183 26.16656746 115.24949909 25.84387589 113.98148537 C22.70063348 101.62902987 19.55924812 89.27610288 16.4198103 76.9226799 C15.24072398 72.2835064 14.06112356 67.6444637 12.881464 63.00543594 C12.07497576 59.83293782 11.26929895 56.66023444 10.46366882 53.48751831 C10.21141698 52.49552555 9.95916513 51.50353279 9.69926929 50.48147964 C9.20510232 48.5379291 8.7117364 46.59417467 8.21922588 44.6502037 C6.94928708 39.65464933 5.64817618 34.66954443 4.30386353 29.69345093 C3.88769382 28.14046689 3.88769382 28.14046689 3.46311665 26.55610943 C2.93522242 24.59162698 2.40084569 22.6288698 1.85862255 20.66829395 C-0.02131192 13.64969131 -0.75462288 7.28071339 0 0 Z " fill="#FF0033" transform="translate(870,198)"/>
<path d="M0 0 C0.33 0 0.66 0 1 0 C5.53302518 60.30542423 -1.49771739 126.52582109 -41.42675781 174.72216797 C-44.48836866 178.27616823 -47.71851825 181.6474905 -51 185 C-52.32451172 186.39992188 -52.32451172 186.39992188 -53.67578125 187.828125 C-90.41487986 225.89642399 -143.95643577 240.1845835 -195.42578125 241.28515625 C-255.73305768 242.26974345 -317.1127752 232.1701632 -362.0546875 188.91015625 C-393.15134008 158.36628838 -411.04023887 117.89118711 -417 75 C-417.17950195 73.77249023 -417.35900391 72.54498047 -417.54394531 71.28027344 C-419.40553289 57.50322279 -419.22615127 43.75180948 -419.125 29.875 C-419.11494265 27.45182665 -419.10582171 25.02864922 -419.09765625 22.60546875 C-419.07587845 16.7368885 -419.04262245 10.868464 -419 5 C-417.39636252 8.06982104 -416.58654327 10.60659045 -416.0703125 14.04296875 C-415.91691406 15.02450928 -415.76351563 16.0060498 -415.60546875 17.01733398 C-415.44691406 18.06348877 -415.28835938 19.10964355 -415.125 20.1875 C-414.02069199 27.2041112 -412.82398235 34.07243258 -411 40.9375 C-409.03554467 48.47076741 -408.21732602 56.10655836 -407.36535645 63.82876587 C-402.53293418 107.48193333 -387.52915416 145.17981034 -358 178 C-357.31035156 178.7734375 -356.62070313 179.546875 -355.91015625 180.34375 C-322.32411868 215.92818904 -270.64792971 228.80992417 -223.32666016 230.20654297 C-217.48838527 230.32530727 -211.651744 230.33417037 -205.8125 230.3125 C-204.78640625 230.31067719 -203.7603125 230.30885437 -202.703125 230.30697632 C-186.95692235 230.26000333 -171.5398825 229.76603375 -156 227 C-155.03384766 226.83371094 -154.06769531 226.66742188 -153.07226562 226.49609375 C-116.6114306 220.00669002 -83.8771956 203.57657927 -58 177 C-57.51660156 176.56171875 -57.03320312 176.1234375 -56.53515625 175.671875 C-45.59976702 165.48266527 -37.80725782 152.16223905 -31 139 C-30.52868652 138.09628662 -30.52868652 138.09628662 -30.04785156 137.17431641 C-17.93659083 113.61746189 -12.88137813 88.02822211 -10.23339844 61.87451172 C-9.2449683 52.75944313 -7.32449513 44.00509682 -5.20483398 35.0949707 C-2.51324495 23.50715008 -1.14188757 11.82890303 0 0 Z " fill="#FF0033" transform="translate(1661,281)"/>
<path d="M0 0 C0.33 0 0.66 0 1 0 C1.05945801 0.56058105 1.11891602 1.12116211 1.18017578 1.69873047 C2.44448249 13.23116348 4.19441271 24.42466493 7 35.6875 C9.26213453 44.83964211 10.69516879 53.80127772 11.5625 63.1875 C15.86786107 109.03138866 34.10958235 148.86386291 66 182 C66.639375 182.70253906 67.27875 183.40507812 67.9375 184.12890625 C94.92214437 212.91640401 135.3626125 222.60364254 173 227 C174.33804687 227.15903809 174.33804687 227.15903809 175.703125 227.32128906 C186.46486857 228.40758662 197.3203041 228.2439012 208.125 228.25 C209.19658356 228.25067474 210.26816711 228.25134949 211.3722229 228.25204468 C259.54428982 228.20384874 304.89876913 218.5028463 340.3359375 183.8125 C361.21725657 162.56831441 375.4500557 133.87537669 382 105 C381.24259521 104.78907715 380.48519043 104.5781543 379.70483398 104.36083984 C374.28515625 102.8515625 374.28515625 102.8515625 372 102 C371.67 101.34 371.34 100.68 371 100 C371.77734375 98.2734375 371.77734375 98.2734375 372.9375 96.375 C373.618125 95.26125 374.29875 94.1475 375 93 C381.95023264 93.64653327 388.38177303 95.86027248 395 98 C385.48383631 139.08743617 366.54296462 179.15283037 332 205 C330.59427734 206.07121094 330.59427734 206.07121094 329.16015625 207.1640625 C294.10555504 232.69933185 252.52570025 239.24287883 210.125 239.1875 C209.26694763 239.18689575 208.40889526 239.1862915 207.52484131 239.18566895 C193.60279859 239.15914399 179.8259854 238.7654277 166 237 C164.98873047 236.87109375 163.97746094 236.7421875 162.93554688 236.609375 C122.13298337 231.17908928 87.86605157 217.40593349 58 189 C57.36707031 188.41992188 56.73414063 187.83984375 56.08203125 187.2421875 C49.99352195 181.4863046 45.04213354 174.66231562 40 168 C39.3512793 167.15042725 39.3512793 167.15042725 38.68945312 166.28369141 C9.04741638 127.22151586 -1.28073895 78.1064461 -1.13037109 29.85571289 C-1.12497456 27.80282306 -1.13038043 25.75014924 -1.13671875 23.69726562 C-1.14028441 15.75189439 -0.81897124 7.90521785 0 0 Z " fill="#FF0033" transform="translate(1670,283)"/>
<path d="M0 0 C0.66 0.33 1.32 0.66 2 1 C7.40930459 20.31833603 5.36063681 43.87878027 0 63 C-0.18191895 63.6698291 -0.36383789 64.3396582 -0.55126953 65.02978516 C-10.03572364 99.02634049 -34.30567177 126.92158756 -64.625 144.1875 C-98.7814154 162.88190718 -137.92284993 167.23759917 -176.25 167.1875 C-177.17752075 167.18656342 -178.1050415 167.18562683 -179.06066895 167.18466187 C-226.19807038 167.08179267 -283.39511069 163.00867233 -319.00390625 128.03515625 C-320.00560802 127.02641152 -321.004418 126.01478512 -322 125 C-322.89589844 124.09121094 -323.79179687 123.18242187 -324.71484375 122.24609375 C-330.91430692 115.68364198 -336.18574053 108.62891204 -341 101 C-341.37511719 100.40622559 -341.75023437 99.81245117 -342.13671875 99.20068359 C-356.12371518 76.65082885 -362.66761762 51.24800469 -365 25 C-359.89027647 24.21341226 -355.15077262 23.90963557 -350 24 C-349.32845067 25.28913487 -348.66291141 26.58140204 -348 27.875 C-347.62875 28.59429687 -347.2575 29.31359375 -346.875 30.0546875 C-346 32 -346 32 -346 34 C-348.64 34 -351.28 34 -354 34 C-346.96842513 70.57899264 -332.04440647 108.24377502 -300 130.125 C-279.94241036 143.27454533 -256.5044018 149.62448793 -233 153 C-231.98325195 153.15098145 -230.96650391 153.30196289 -229.91894531 153.45751953 C-196.0256172 158.26313519 -158.76325587 158.93793802 -125 153 C-124.02401855 152.83371094 -123.04803711 152.66742188 -122.04248047 152.49609375 C-87.0398377 146.31005968 -51.6444184 130.65455139 -30.25683594 101.07250977 C-28.42694009 98.42910759 -26.7058525 95.72467207 -25 93 C-24.06220703 91.53626953 -24.06220703 91.53626953 -23.10546875 90.04296875 C-11.07985484 70.4718716 -5.52709997 47.75714864 -6.10546875 24.8515625 C-6.14355148 20.11026323 -5.20625424 16.63448386 -3.5625 12.1875 C-2.08684884 8.15736028 -0.70449186 4.25124396 0 0 Z " fill="#FF0033" transform="translate(747,355)"/>
<path d="M0 0 C24 41.13475177 24 41.13475177 24 53 C0.54731268 58.51518194 -22.95368462 63.81424856 -46.4744873 69.03024292 C-49.57665718 69.71827216 -52.67826289 70.40876469 -55.77941895 71.10134888 C-59.48893717 71.92956916 -63.19960356 72.7524388 -66.91119766 73.57130432 C-68.29649415 73.87778524 -69.68139917 74.18604158 -71.06588364 74.49617004 C-72.97918186 74.92435393 -74.89410043 75.34527792 -76.80908203 75.76586914 C-77.88835968 76.00519669 -78.96763733 76.24452423 -80.07962036 76.49110413 C-82.7936916 76.96404937 -85.25318101 77.10026697 -88 77 C-88.27972656 76.29617187 -88.55945312 75.59234375 -88.84765625 74.8671875 C-94.01412715 62.1420534 -99.01546838 50.67142784 -109 41 C-109.63679688 40.36578125 -110.27359375 39.7315625 -110.9296875 39.078125 C-124.65632296 26.20584444 -142.50549881 20.8879444 -161.015625 20.96484375 C-181.504148 21.78840203 -199.51622378 28.05397561 -214 43 C-215.05960938 44.06347656 -215.05960938 44.06347656 -216.140625 45.1484375 C-229.9274841 59.72462059 -236.47037934 80.14656579 -238.5625 99.8125 C-238.706875 100.864375 -238.85125 101.91625 -239 103 C-239.99 103.495 -239.99 103.495 -241 104 C-241.17525427 98.70231369 -241.30108431 93.40637443 -241.38452148 88.10644531 C-241.41936015 86.31024732 -241.46685121 84.51424226 -241.52807617 82.71875 C-242.18575607 62.91097905 -235.65132429 50.91557643 -222.3671875 36.0546875 C-207.93381901 20.96338768 -187.77318787 11.4999943 -166.76171875 10.76171875 C-142.6744951 10.32264943 -121.32332311 15.01630913 -102.98046875 31.67578125 C-93.5061988 40.83899445 -86.73036322 50.64560814 -82 63 C-82 63.99 -82 64.98 -82 66 C-80.31870247 65.62415771 -80.31870247 65.62415771 -78.60343933 65.24072266 C-68.05363415 62.88282225 -57.50308989 60.52825514 -46.95180798 58.17697144 C-41.52698328 56.96797193 -36.10242824 55.75778884 -30.6784668 54.54492188 C-25.44659763 53.37505452 -20.21405006 52.20826877 -14.98101234 51.04364014 C-12.98203232 50.59818809 -10.98330163 50.15161561 -8.98482323 49.70391846 C-6.19129378 49.07831328 -3.39691401 48.45665419 -0.60229492 47.8359375 C0.22848572 47.64892273 1.05926636 47.46190796 1.91522217 47.26922607 C5.00217403 46.58695233 7.82799825 46 11 46 C4.45933146 30.96411787 -2.3823292 15.98286584 -11 2 C-3.375 0 -3.375 0 0 0 Z " fill="#FF0033" transform="translate(2037,176)"/>
<path d="M0 0 C8.46303421 12.69455131 3.6547127 44.61026002 1.03515625 59.1484375 C-5.12973209 89.40353001 -20.24302082 116.77799044 -46.08203125 134.5 C-52.41247813 138.64321967 -59.07925359 141.96685438 -66 145 C-66.62422852 145.27682617 -67.24845703 145.55365234 -67.89160156 145.83886719 C-95.6083496 157.86251142 -126.72172442 159.19594544 -156.50390625 159.09765625 C-158.20596779 159.09578446 -159.90802988 159.09436417 -161.61009216 159.09336853 C-166.02726811 159.08960311 -170.44440965 159.07982611 -174.86157227 159.06866455 C-179.39403824 159.05831973 -183.92650993 159.0538433 -188.45898438 159.04882812 C-197.30600514 159.03819662 -206.15299825 159.02119486 -215 159 C-215 155.7 -215 152.4 -215 149 C-214.00902313 148.99191315 -213.01804626 148.98382629 -211.99703979 148.97549438 C-202.55602531 148.89725846 -193.11514141 148.80934081 -183.67429924 148.71247292 C-178.82325851 148.66299563 -173.97223463 148.61667123 -169.12109375 148.578125 C-98.2952852 148.02038804 -98.2952852 148.02038804 -37.75 114.25 C-19.15183676 94.38016748 -8.4623468 67.51662098 -7.87890625 40.3671875 C-7.58674349 28.20936908 -5.43832799 17.62769428 -1.6484375 6.06445312 C-1.01793659 4.05710535 -0.48899463 2.04593507 0 0 Z " fill="#FF0033" transform="translate(382,206)"/>
<path d="M0 0 C11.35151409 9.49894699 25.48878165 24.96552131 27.12280273 40.62475586 C27.20577424 43.21553466 27.18772066 45.78373384 27.125 48.375 C27.10856445 49.74628052 27.10856445 49.74628052 27.09179688 51.14526367 C26.97238855 58.53624952 26.56774464 65.88958824 25.875 73.25 C23.63367969 71.00867969 23.5150268 70.29777724 23.015625 67.27734375 C22.87286133 66.4685376 22.73009766 65.65973145 22.58300781 64.82641602 C22.43186523 63.95557373 22.28072266 63.08473145 22.125 62.1875 C17.67598211 38.62677239 8.26599604 18.73368839 -11.76171875 4.35546875 C-31.57142879 -8.04573184 -56.03705722 -11.2956463 -78.90356445 -6.72070312 C-97.79904287 -2.06147785 -113.75944258 8.82146102 -124.265625 25.13671875 C-133.66575857 40.87601803 -137.23331799 57.35296556 -140.125 75.25 C-142.45541769 71.58808148 -142.46331379 68.01744834 -142.49609375 63.80859375 C-142.50512222 63.08567642 -142.5141507 62.36275909 -142.52345276 61.61793518 C-142.53793913 60.08737306 -142.546838 58.55674925 -142.55053711 57.02612305 C-142.56234 54.71877857 -142.6114518 52.41419474 -142.66210938 50.10742188 C-142.76170173 41.02566704 -141.83844057 34.25524527 -137.125 26.25 C-136.64812744 25.36803955 -136.17125488 24.4860791 -135.67993164 23.57739258 C-132.06867164 16.96361819 -127.31150103 11.66820039 -122.125 6.25 C-121.49851562 5.54875 -120.87203125 4.8475 -120.2265625 4.125 C-90.19598837 -28.31308851 -33.0222604 -25.15246937 0 0 Z " fill="#FF0134" transform="translate(1510.125,206.75)"/>
<path d="M0 0 C3.3 0 6.6 0 10 0 C10 15.84 10 31.68 10 48 C45.31 48 80.62 48 117 48 C117 32.16 117 16.32 117 0 C120.3 0 123.6 0 127 0 C127 19.14 127 38.28 127 58 C85.09 58 43.18 58 0 58 C0 38.86 0 19.72 0 0 Z " fill="#FF0033" transform="translate(40,457)"/>
<path d="M0 0 C3.3 0 6.6 0 10 0 C10 15.84 10 31.68 10 48 C37.72 48 65.44 48 94 48 C94 32.16 94 16.32 94 0 C97.3 0 100.6 0 104 0 C104 19.14 104 38.28 104 58 C69.68 58 35.36 58 0 58 C0 38.86 0 19.72 0 0 Z " fill="#FF0033" transform="translate(1120,457)"/>
<path d="M0 0 C2.97 0 5.94 0 9 0 C9 15.84 9 31.68 9 48 C36.72 48 64.44 48 93 48 C93 32.16 93 16.32 93 0 C96.3 0 99.6 0 103 0 C103 19.14 103 38.28 103 58 C69.01 58 35.02 58 0 58 C0 38.86 0 19.72 0 0 Z " fill="#FF0033" transform="translate(767,457)"/>
<path d="M0 0 C5.68491982 8.52737972 7.39634034 15.9652832 7.12475586 26.00756836 C6.44149631 51.69008892 14.91821996 73.77617081 32 93 C43.59712145 105.21940602 60.97166895 116.65722298 77 122 C77 122.66 77 123.32 77 124 C64.42759809 124.78266929 55.344723 125.05410576 45 117 C43.46085937 115.89978516 43.46085937 115.89978516 41.890625 114.77734375 C38.86761316 112.58528417 35.92453104 110.32132051 33 108 C32.26910156 107.42507813 31.53820312 106.85015625 30.78515625 106.2578125 C16.85168008 94.72475697 6.49881422 78.11966986 1 61 C0.68458252 60.03562012 0.68458252 60.03562012 0.36279297 59.05175781 C-2.80146813 48.8850345 -3.37389333 38.86148768 -3.4375 28.25 C-3.45272705 26.45731689 -3.45272705 26.45731689 -3.46826172 24.62841797 C-3.38449798 16.05030374 -2.07947266 8.31155322 0 0 Z " fill="#FF0133" transform="translate(401,193)"/>
<path d="M0 0 C0.8664917 0.25579834 1.7329834 0.51159668 2.62573242 0.77514648 C19.83025754 5.83053126 37.05126713 10.60711939 54.5 14.75 C100.66351438 25.75425186 100.66351438 25.75425186 115 38 C112.49038462 43.18010355 112.49038462 43.18010355 110 45 C106.66160992 44.60126957 103.946897 42.98765834 101.01831055 41.41786194 C94.31683605 37.84455434 87.55397262 34.94435389 80.33984375 32.57421875 C79.4360498 32.27556412 78.53225586 31.97690948 77.60107422 31.66920471 C67.37039439 28.36572189 56.96244619 25.88197159 46.5 23.4375 C39.93353339 21.89089018 33.37430565 20.31961717 26.82714844 18.6930542 C24.89444458 18.21926637 22.95869365 17.75778364 21.02050781 17.3069458 C18.0984727 16.62350712 15.19030203 15.89665359 12.28125 15.16015625 C11.39167603 14.9620787 10.50210205 14.76400116 9.58557129 14.55992126 C3.67257622 12.99887114 3.67257622 12.99887114 1.76147461 10.16061401 C0.32646996 6.56586908 0 3.91930409 0 0 Z " fill="#FF0033" transform="translate(505,326)"/>
<path d="M0 0 C3.96 0 7.92 0 12 0 C20.27581132 17.37304312 28.25688031 37.40817771 28 57 C23.50198002 57.28927658 19.00369496 57.57389836 14.50512695 57.85449219 C12.97965851 57.95026583 11.45426482 58.04723902 9.92895508 58.14550781 C4.95403789 58.46552218 -0.02129607 58.74523146 -5 59 C-6.06951904 59.06703125 -7.13903809 59.1340625 -8.2409668 59.203125 C-14.61587968 59.45024458 -18.76438806 58.32004371 -24.1875 55 C-24.85330078 54.6184375 -25.51910156 54.236875 -26.20507812 53.84375 C-27.81564024 52.91680778 -29.40978283 51.96142684 -31 51 C-31 50.67 -31 50.34 -31 50 C-15.49 49.01 0.02 48.02 16 47 C14.6809539 39.08572337 13.3699689 32.09241058 10.8125 24.625 C10.51077881 23.72885986 10.20905762 22.83271973 9.89819336 21.90942383 C7.23873105 14.23882277 3.92719391 7.10237197 0 0 Z " fill="#FF0033" transform="translate(710,167)"/>
<path d="M0 0 C5.81256919 -0.05016491 11.62500705 -0.08607374 17.43774414 -0.10986328 C19.40716757 -0.11980096 21.37657673 -0.13335576 23.34594727 -0.15087891 C38.63313502 -0.28330295 54.25811383 -0.37479501 69 4.25 C70.05223755 4.56988892 70.05223755 4.56988892 71.12573242 4.89624023 C78.59597056 7.30255636 84.76478716 11.08193332 90 17 C88.82744291 20.33727786 87.81131596 22.77437487 85 25 C84.34 25 83.68 25 83 25 C82.01 23.9171875 82.01 23.9171875 81 22.8125 C69.91053761 11.43290633 50.82051827 10.93565908 35.9375 10.68359375 C34.3896582 10.6524221 34.3896582 10.6524221 32.81054688 10.62062073 C29.54042704 10.55565895 26.27023245 10.49649035 23 10.4375 C20.77212794 10.39426393 18.54426321 10.35064808 16.31640625 10.30664062 C10.8776792 10.20003285 5.43887756 10.09861771 0 10 C0 6.7 0 3.4 0 0 Z " fill="#FF0033" transform="translate(167,182)"/>
<path d="M0 0 C2.43145529 2.57612922 4.29772981 5.07626677 6.03515625 8.15625 C-2.12511008 7.41440761 -8.85242845 5.5969406 -15.83984375 1.21875 C-28.25002794 -6.48741985 -41.13313389 -7.99672498 -55.46484375 -7.65625 C-64.38061741 -7.45551964 -70.94588502 -8.67805715 -78.96484375 -12.84375 C-78.63484375 -13.50375 -78.30484375 -14.16375 -77.96484375 -14.84375 C-51.64371562 -23.14105887 -20.41098407 -19.38213772 0 0 Z " fill="#FF0033" transform="translate(609.96484375,186.84375)"/>
</svg>
