<?xml version="1.0" standalone="no"?>
<!DOCTYPE svg PUBLIC "-//W3C//DTD SVG 20010904//EN"
 "http://www.w3.org/TR/2001/REC-SVG-20010904/DTD/svg10.dtd">
<svg version="1.0" xmlns="http://www.w3.org/2000/svg"
 width="156.000000pt" height="256.000000pt" viewBox="0 0 156.000000 256.000000"
 preserveAspectRatio="xMidYMid meet">

<g transform="translate(0.000000,256.000000) scale(0.100000,-0.100000)"
fill="#FF003F" stroke="none">
<path d="M985 2538 c-11 -5 -69 -89 -130 -185 -60 -97 -128 -204 -150 -238
-22 -34 -52 -82 -66 -106 -15 -24 -88 -141 -164 -259 -75 -118 -149 -235 -163
-258 -15 -24 -48 -76 -73 -115 -25 -40 -60 -94 -77 -121 -74 -116 -125 -243
-148 -371 -18 -101 -18 -171 0 -265 18 -94 20 -97 68 -197 51 -105 167 -232
267 -293 235 -141 463 -157 703 -47 180 83 330 260 393 463 21 66 25 101 25
197 0 167 -37 292 -125 424 -49 73 -176 191 -242 225 -34 18 -63 37 -63 42 0
5 12 34 26 65 69 147 125 262 215 449 55 112 99 205 99 207 0 2 41 88 90 191
68 141 87 190 78 196 -19 12 -539 9 -563 -4z"/>
</g>
</svg>
